<svg width="29" height="29" viewBox="0 0 29 29" fill="none" xmlns="http://www.w3.org/2000/svg"><path d="M14.0366 28.416C6.28442 28.416 0 22.1695 0 14.4641C0 6.75868 6.28442 0.512207 14.0366 0.512207C21.7889 0.512207 28.0733 6.75868 28.0733 14.4641C28.0733 22.1695 21.7889 28.416 14.0366 28.416Z" fill="#00FF84"></path><path d="M12.0676 18.0659L19.1756 8.69839C19.3455 8.45249 19.6553 8.41262 19.8676 8.60934C20.0799 8.80606 20.1144 9.16488 19.9445 9.41078L12.4614 19.3675C12.2629 19.6315 11.8676 19.634 11.6658 19.3725L8.12862 14.7877C7.95896 14.5416 7.99366 14.1828 8.20613 13.9863C8.41861 13.7898 8.7284 13.83 8.89806 14.0761L12.0676 18.0659Z" fill="#002333" stroke="#002333" strokeWidth="0.5"></path></svg>